HIERARCHY
ROOT root
{
	OFFSET	0	13.1	24.9
	CHANNELS 6  Xposition Yposition Zposition Xrotation Yrotation Zrotation
	JOINT spine_1
	{
		OFFSET	0	9.99999	0
		CHANNELS 3  Xrotation Yrotation Zrotation
		JOINT spine_2
		{
			OFFSET	0	112	-10
			CHANNELS 3  Xrotation Yrotation Zrotation
			JOINT spine_3
			{
				OFFSET	0	206.5	19.3
				CHANNELS 3  Xrotation Yrotation Zrotation
				JOINT spine_4
				{
					OFFSET	0	110.4	14.6
					CHANNELS 3  Xrotation Yrotation Zrotation
					JOINT neck_1
					{
						OFFSET	0	71.8	-50.3
						CHANNELS 3  Xrotation Yrotation Zrotation
						JOINT neck_2
						{
							OFFSET	0	86.2	-25.8
							CHANNELS 3  Xrotation Yrotation Zrotation
							JOINT head_ee
							{
								OFFSET	0	179.8	-8.7
								CHANNELS 3  Xrotation Yrotation Zrotation
								End Site
								{
									OFFSET	1	0	0
								}
							}
						}
					}
					JOINT left_clavicle
					{
						OFFSET	-43.2	22.4	-70.8
						CHANNELS 3  Xrotation Yrotation Zrotation
						JOINT left_shoulder
						{
							OFFSET	-93.9	-5.79999	48.7
							CHANNELS 3  Xrotation Yrotation Zrotation
							JOINT left_elbow
							{
								OFFSET	-291.4	-30.8	15.2
								CHANNELS 3  Xrotation Yrotation Zrotation
								JOINT left_lowarm_twist
								{
									OFFSET	-110.7	-3.89999	13.6
									CHANNELS 3  Xrotation Yrotation Zrotation
									JOINT left_hand
									{
										OFFSET	-110.7	-3.89999	13.6
										CHANNELS 3  Xrotation Yrotation Zrotation
										JOINT left_ee
										{
											OFFSET	-80.8	-5.10001	12.1
											CHANNELS 3  Xrotation Yrotation Zrotation
											End Site
											{
												OFFSET	1	0	0
											}
										}
									}
								}
							}
						}
					}
					JOINT right_clavicle
					{
						OFFSET	43.2	22.4	-70.8
						CHANNELS 3  Xrotation Yrotation Zrotation
						JOINT right_shoulder
						{
							OFFSET	93.9	-5.79999	48.7
							CHANNELS 3  Xrotation Yrotation Zrotation
							JOINT right_elbow
							{
								OFFSET	291.4	-30.8	15.2
								CHANNELS 3  Xrotation Yrotation Zrotation
								JOINT right_lowarm_twist
								{
									OFFSET	110.7	-3.89999	13.6
									CHANNELS 3  Xrotation Yrotation Zrotation
									JOINT right_hand
									{
										OFFSET	110.7	-3.89999	13.6
										CHANNELS 3  Xrotation Yrotation Zrotation
										JOINT right_ee
										{
											OFFSET	80.8	-5.10001	12.1
											CHANNELS 3  Xrotation Yrotation Zrotation
											End Site
											{
												OFFSET	1	0	0
											}
										}
									}
								}
							}
						}
					}
				}
			}
		}
	}
	JOINT left_hip
	{
		OFFSET	-82.8	-127.5	0.300001
		CHANNELS 3  Xrotation Yrotation Zrotation
		JOINT left_knee
		{
			OFFSET	-28.2	-396.7	2.2
			CHANNELS 3  Xrotation Yrotation Zrotation
			JOINT left_ankle
			{
				OFFSET	-11.7	-411.3	35.4
				CHANNELS 3  Xrotation Yrotation Zrotation
				JOINT left_toes
				{
					OFFSET	0	-60	-88.6
					CHANNELS 3  Xrotation Yrotation Zrotation
					JOINT left_foot_ee
					{
						OFFSET	-22.5	-16.5	-42.2
						CHANNELS 3  Xrotation Yrotation Zrotation
						End Site
						{
							OFFSET	1	0	0
						}
					}
				}
			}
		}
	}
	JOINT right_hip
	{
		OFFSET	82.8	-127.5	0.300001
		CHANNELS 3  Xrotation Yrotation Zrotation
		JOINT right_knee
		{
			OFFSET	28.2	-396.7	2.2
			CHANNELS 3  Xrotation Yrotation Zrotation
			JOINT right_ankle
			{
				OFFSET	11.7	-411.3	35.4
				CHANNELS 3  Xrotation Yrotation Zrotation
				JOINT right_toes
				{
					OFFSET	0	-60	-88.6
					CHANNELS 3  Xrotation Yrotation Zrotation
					JOINT right_foot_ee
					{
						OFFSET	22.5	-16.5	-42.2
						CHANNELS 3  Xrotation Yrotation Zrotation
						End Site
						{
							OFFSET	1	0	0
						}
					}
				}
			}
		}
	}
}
MOTION
Frames: 8
Frame Time: 0.02
3574.42 741.953 -1474.73 -6.91085297369 61.3784455466 8.15011286714 1.2857 0.682412 0.213683 1.28548 0.667432 0.256675 1.2885 0.607235 0.377643 1.28891 0.659256 0.277 -10.6525 1.74267 -4.54223 -10.6064 6.31266 -3.96025 -0.0 0.0 -0.0 9.38159 26.8031 15.3241 -12.7667 -45.4943 60.288 1.85549 -42.5836 0.723171 -81.7579 -8.0444 5.25262 7.47213 35.1538 69.2972 -0.0 0.0 -0.0 8.63877 -5.38972 -16.6521 -38.965 34.7487 -55.5658 0.604076 16.6595 -0.0884464 -85.1412 8.46957 -5.18109 -10.5133 -23.8546 68.4391 0.0 0.0 0.0 -2.9185 -10.0234 0.979355 5.47249 -0.26372 -0.797842 35.6691 20.4259 -4.61773 -26.6878 0.0 0.0 -0.0 0.0 -0.0 19.4861 -2.33778 0.691824 -18.5822 -0.309817 -2.82229 14.4909 -2.77814 2.03281 22.055 -0.0 -0.0 0.0 0.0 0.0 
3572.03500084 743.93 -1481.3439458 -6.72697788073 60.3611781217 7.3298533009 1.26223 0.780114 0.230028 1.26193 0.763896 0.279205 1.26569 0.697578 0.418189 1.26624 0.754867 0.302768 -10.3634 2.33823 -2.21593 -10.3602 5.89229 -1.56014 -0.0 0.0 -0.0 8.61205 26.9545 14.2455 -12.263 -45.3302 60.9348 2.19522 -47.3926 0.963558 -84.077 -8.33636 5.20632 7.44547 35.0034 68.8793 -0.0 0.0 -0.0 8.72912 -4.81012 -16.8584 -39.3586 34.9867 -55.4281 0.595666 16.4402 -0.0860507 -85.2536 8.48361 -5.17828 -10.4646 -23.7359 67.8422 0.0 0.0 0.0 -2.78684 -10.1601 1.06778 5.20094 -0.248841 -0.758858 34.3403 20.4852 -4.4823 -27.6706 0.0 0.0 -0.0 0.0 -0.0 19.4764 -2.34952 0.408132 -18.5602 -0.309995 -2.81891 11.259 2.50864 1.61938 19.7974 -0.0 -0.0 0.0 0.0 0.0 
3572.0662407 743.93 -1481.35512771 -6.67183752431 60.0926264899 7.26632762585 1.26223 0.780114 0.230028 1.26193 0.763896 0.279205 1.26569 0.697578 0.418189 1.26624 0.754867 0.302768 -10.3634 2.33823 -2.21593 -10.3602 5.89229 -1.56014 -0.0 0.0 -0.0 8.61205 26.9545 14.2455 -12.263 -45.3302 60.9348 2.19522 -47.3926 0.963558 -84.077 -8.33636 5.20632 7.44547 35.0034 68.8793 -0.0 0.0 -0.0 8.72912 -4.81012 -16.8584 -39.3586 34.9867 -55.4281 0.595666 16.4402 -0.0860507 -85.2536 8.48361 -5.17828 -10.4646 -23.7359 67.8422 0.0 0.0 0.0 -2.78684 -10.1601 1.06778 5.20094 -0.248841 -0.758858 34.3403 20.4852 -4.4823 -27.6706 0.0 0.0 -0.0 0.0 -0.0 19.4764 -2.34952 0.408132 -18.5602 -0.309995 -2.81891 11.259 2.50864 1.61938 19.7974 -0.0 -0.0 0.0 0.0 0.0 
3572.15805195 743.93 -1481.3870332 -6.51618406736 59.3057784927 7.0860498601 1.26223 0.780114 0.230028 1.26193 0.763896 0.279205 1.26569 0.697578 0.418189 1.26624 0.754867 0.302768 -10.3634 2.33823 -2.21593 -10.3602 5.89229 -1.56014 -0.0 0.0 -0.0 8.61205 26.9545 14.2455 -12.263 -45.3302 60.9348 2.19522 -47.3926 0.963558 -84.077 -8.33636 5.20632 7.44547 35.0034 68.8793 -0.0 0.0 -0.0 8.72912 -4.81012 -16.8584 -39.3586 34.9867 -55.4281 0.595666 16.4402 -0.0860507 -85.2536 8.48361 -5.17828 -10.4646 -23.7359 67.8422 0.0 0.0 0.0 -2.78684 -10.1601 1.06778 5.20094 -0.248841 -0.758858 34.3403 20.4852 -4.4823 -27.6706 0.0 0.0 -0.0 0.0 -0.0 19.4764 -2.34952 0.408132 -18.5602 -0.309995 -2.81891 11.259 2.50864 1.61938 19.7974 -0.0 -0.0 0.0 0.0 0.0 
3563.03420443 748.611 -1492.62894296 -7.58268433069 59.3124406658 6.86882883487 1.18556 0.692784 0.25079 1.18534 0.675422 0.294367 1.18885 0.60727 0.417219 1.18923 0.66554 0.316074 -9.41825 3.01672 0.0961083 -9.42601 5.59905 0.816936 -0.0 0.0 -0.0 8.70015 26.5863 14.4252 -11.8761 -42.1261 63.0611 2.40249 -49.9538 1.11925 -85.4968 -8.51397 5.1721 7.0484 34.1935 62.8321 -0.0 0.0 -0.0 8.81648 -3.39853 -17.1012 -40.0155 35.9728 -55.2103 0.568712 15.7339 -0.0785816 -85.1088 8.46553 -5.1819 -10.3772 -23.3784 67.2313 0.0 0.0 0.0 -3.06009 -6.79047 2.57848 6.48648 -0.320914 -0.942786 32.7398 21.0503 -4.32442 -28.9604 0.0 0.0 -0.0 0.0 -0.0 18.3026 -2.31514 1.70832 -17.4436 -0.31731 -2.64775 9.61607 10.2348 1.44017 18.6362 -0.0 -0.0 0.0 0.0 0.0 
3562.02962498 749.829 -1500.09882944 -8.0077857423 59.4379962913 7.09757880122 1.10619 0.559845 0.23065 1.10606 0.544033 0.265808 1.10861 0.483176 0.364922 1.10883 0.534745 0.284033 -10.0543 3.17445 -0.680814 -10.0655 6.43588 0.129427 -0.0 0.0 -0.0 8.61545 25.5458 14.4729 -12.161 -40.8827 62.9683 2.3793 -49.6801 1.10153 -85.3446 -8.49497 5.17598 6.87483 33.9124 60.6108 -0.0 0.0 -0.0 8.98198 -2.75609 -17.4592 -39.7755 36.5581 -55.3593 0.474178 13.219 -0.0549442 -85.1319 8.46841 -5.18132 -10.3271 -22.9431 67.5426 0.0 0.0 0.0 -3.12501 -8.99844 2.52879 6.577 -0.326144 -0.955676 33.3349 21.3057 -4.39346 -29.2598 0.0 0.0 -0.0 0.0 -0.0 18.1582 -2.74371 2.00797 -17.6542 -0.316185 -2.68005 9.62018 11.6681 1.45312 17.9647 -0.0 -0.0 0.0 0.0 0.0 
3556.51852048 749.228 -1503.44523517 -7.65836123278 58.771708942 6.53507559307 1.08163 0.518829 0.165451 1.08151 0.507249 0.19813 1.08328 0.459879 0.291667 1.08351 0.500171 0.215376 -9.25538 3.28751 -0.567612 -9.26379 6.55943 0.222989 -0.0 0.0 -0.0 8.7669 26.3028 14.5632 -12.5889 -39.0611 63.2745 2.45931 -50.6118 1.16296 -85.3526 -8.49597 5.17578 6.6752 33.5882 58.2701 -0.0 0.0 -0.0 8.97882 -1.95639 -17.4892 -40.5467 37.0012 -54.6455 0.437104 12.2178 -0.0467818 -85.2581 8.48417 -5.17817 -10.2415 -22.3798 67.5242 0.0 0.0 0.0 -3.3689 -8.87583 2.76361 6.10764 -0.299244 -0.888748 32.652 22.2049 -4.33945 -29.775 0.0 0.0 -0.0 0.0 -0.0 17.5124 -2.80669 2.2932 -17.4629 -0.317212 -2.65072 11.3693 11.5985 1.70482 18.0465 -0.0 -0.0 0.0 0.0 0.0 
3557.32259032 749.228 -1503.93113495 -7.32659237115 57.1944771361 6.1438262414 1.08163 0.518829 0.165451 1.08151 0.507249 0.19813 1.08328 0.459879 0.291667 1.08351 0.500171 0.215376 -9.25538 3.28751 -0.567612 -9.26379 6.55943 0.222989 -0.0 0.0 -0.0 8.7669 26.3028 14.5632 -12.5889 -39.0611 63.2745 2.45931 -50.6118 1.16296 -85.3526 -8.49597 5.17578 6.6752 33.5882 58.2701 -0.0 0.0 -0.0 8.97882 -1.95639 -17.4892 -40.5467 37.0012 -54.6455 0.437104 12.2178 -0.0467818 -85.2581 8.48417 -5.17817 -10.2415 -22.3798 67.5242 0.0 0.0 0.0 -3.3689 -8.87583 2.76361 6.10764 -0.299244 -0.888748 32.652 22.2049 -4.33945 -29.775 0.0 0.0 -0.0 0.0 -0.0 17.5124 -2.80669 2.2932 -17.4629 -0.317212 -2.65072 11.3693 11.5985 1.70482 18.0465 -0.0 -0.0 0.0 0.0 0.0 
